<svg width="677" height="437" viewBox="0 0 677 437" fill="none" xmlns="http://www.w3.org/2000/svg">
<path d="M290.858 1.65403C-8.86078 -8.29684 -17.8423 118.453 10.6866 188.191C21.8237 209.296 20.5835 225.869 18.5713 231.517C15.9431 237.356 9.80905 251.969 6.29864 263.71C-28.5715 409.002 137.062 430.506 198.665 434.886C247.949 438.391 380.012 436.347 439.883 434.886C481.364 435.625 577.168 427.889 628.538 391.044C692.752 344.987 673.804 267.045 667.58 257.213C667.948 248.388 647.358 224.121 661.697 198.016C681.405 167.13 677.32 124.522 672.814 107.078C650.113 40.2317 595.527 -9.86615 290.858 1.65403Z" fill="#FFEEA0"/>
</svg>
